<?xml version="1.0" encoding="UTF-8"?><svg id="Layer_2" xmlns="http://www.w3.org/2000/svg" width="32" height="14.47" viewBox="0 0 32 14.47"><g id="Layer_1-2"><path d="m22.01,13.69c.2-.67.12-1.29-.21-1.75-.3-.42-.81-.67-1.42-.69l-11.55-.15c-.07,0-.14-.04-.18-.09s-.05-.13-.03-.21c.04-.11.15-.2.27-.21l11.65-.15c1.38-.07,2.88-1.18,3.4-2.55l.67-1.73c.03-.07.04-.15.02-.23-.75-3.39-3.78-5.93-7.4-5.93-3.34,0-6.17,2.16-7.18,5.15-.66-.49-1.5-.75-2.39-.67-1.6.16-2.9,1.44-3.05,3.05-.04.4-.01.8.08,1.19C2.08,8.79,0,10.94,0,13.57,0,13.8.02,14.04.05,14.27c.02.11.11.2.22.2h21.31c.13,0,.24-.09.27-.21l.16-.57Z" style="fill:#fff;"/><path d="m25.69,6.27h-.32c-.08.01-.14.07-.17.14l-.45,1.57c-.2.67-.12,1.29.21,1.75.3.42.81.67,1.42.69l2.46.15c.08,0,.14.04.18.09s.05.14.03.21c-.04.11-.15.2-.27.21l-2.56.15c-1.39.07-2.88,1.18-3.4,2.55l-.19.48c-.04.09.03.19.13.19h8.8c.1,0,.2-.07.23-.17.16-.55.24-1.13.24-1.7,0-3.48-2.83-6.3-6.31-6.3" style="fill:#fff; isolation:isolate; opacity:.8;"/></g></svg>