<?xml version="1.0" encoding="UTF-8"?><svg id="Layer_1" xmlns="http://www.w3.org/2000/svg" xmlns:xlink="http://www.w3.org/1999/xlink" viewBox="0 0 32 32"><defs><style>.cls-1{clip-path:url(#clippath);}.cls-2{fill:none;}.cls-2,.cls-3,.cls-4{stroke-width:0px;}.cls-3{fill:#f8761f;}.cls-4{fill:#fff;}</style><clipPath id="clippath"><rect class="cls-2" width="32" height="32"/></clipPath></defs><rect class="cls-3" width="32" height="32"/><g class="cls-1"><path class="cls-4" d="m25.09,15.09h-.3c-.07,0-.13.06-.16.13l-.42,1.47c-.18.63-.12,1.21.19,1.64.28.4.76.62,1.33.65l2.31.14c.07,0,.13.03.16.09.03.06.05.13.03.19-.04.11-.14.18-.25.19l-2.4.14c-1.3.05-2.7,1.1-3.19,2.39l-.18.45c-.03.09.03.18.12.18h8.24c.1,0,.18-.05.21-.16.88-3.15-.96-6.41-4.11-7.29-.52-.14-1.05-.22-1.59-.22"/><path class="cls-4" d="m17.17,9.21c-3.05,0-5.76,1.94-6.74,4.83-.61-.46-1.4-.7-2.24-.62-1.51.16-2.7,1.35-2.86,2.86-.03.38,0,.75.08,1.12-2.46.07-4.41,2.09-4.41,4.55,0,.22.01.44.04.66.01.1.1.18.21.18h19.97c.12,0,.23-.08.25-.19l.15-.54c.18-.64.12-1.22-.19-1.65-.28-.4-.76-.62-1.33-.65l-10.82-.14c-.07,0-.13-.03-.16-.09-.03-.06-.04-.13-.03-.19.04-.11.14-.18.25-.19l10.92-.14c1.3-.05,2.7-1.1,3.19-2.39l.62-1.63c.03-.07.03-.14.02-.21-.72-3.25-3.6-5.56-6.93-5.56Z"/></g></svg>